{
	"asset":{
		"generator":"Khronos glTF Blender I/O v4.1.62",
		"version":"2.0"
	},
	"scene":0,
	"scenes":[
		{
			"name":"Scene",
			"nodes":[
				11,
				23
			]
		}
	],
	"nodes":[
		{
			"mesh":0,
			"name":"Object_4"
		},
		{
			"children":[
				0
			],
			"name":"Cube_1"
		},
		{
			"mesh":1,
			"name":"Object_8"
		},
		{
			"children":[
				2
			],
			"name":"Plane.001_3"
		},
		{
			"mesh":2,
			"name":"Object_10"
		},
		{
			"children":[
				4
			],
			"name":"Plane.002_4"
		},
		{
			"mesh":3,
			"name":"Object_12"
		},
		{
			"children":[
				6
			],
			"name":"Plane.003_5"
		},
		{
			"name":"Plane.004_6"
		},
		{
			"mesh":4,
			"name":"Object_6"
		},
		{
			"children":[
				9
			],
			"name":"Sphere_2"
		},
		{
			"children":[
				1,
				3,
				5,
				7,
				8,
				10
			],
			"name":"Dragonfly.001"
		},
		{
			"mesh":5,
			"name":"Object_4.001"
		},
		{
			"children":[
				12
			],
			"name":"Cube_1.001"
		},
		{
			"mesh":6,
			"name":"Object_8.001"
		},
		{
			"children":[
				14
			],
			"name":"Plane.001_3.001"
		},
		{
			"mesh":7,
			"name":"Object_10.001"
		},
		{
			"children":[
				16
			],
			"name":"Plane.002_4.001"
		},
		{
			"mesh":8,
			"name":"Object_12.001"
		},
		{
			"children":[
				18
			],
			"name":"Plane.003_5.001"
		},
		{
			"name":"Plane.004_6.001"
		},
		{
			"mesh":9,
			"name":"Object_6.001"
		},
		{
			"children":[
				21
			],
			"name":"Sphere_2.001"
		},
		{
			"children":[
				13,
				15,
				17,
				19,
				20,
				22
			],
			"name":"Dragonfly"
		}
	],
	"materials":[
		{
			"doubleSided":true,
			"name":"Material.001",
			"normalTexture":{
				"index":0
			},
			"pbrMetallicRoughness":{
				"baseColorTexture":{
					"index":1
				},
				"metallicFactor":0.6933860778808594,
				"roughnessFactor":0.3033585846424103
			}
		},
		{
			"alphaMode":"BLEND",
			"doubleSided":true,
			"name":"Material2",
			"pbrMetallicRoughness":{
				"baseColorFactor":[
					1,
					1,
					1,
					0.7055743932723999
				],
				"baseColorTexture":{
					"index":2
				},
				"metallicFactor":0.45571306347846985,
				"metallicRoughnessTexture":{
					"index":3
				},
				"roughnessFactor":0.49837231636047363
			}
		},
		{
			"doubleSided":true,
			"name":"Material.002",
			"pbrMetallicRoughness":{
				"baseColorTexture":{
					"index":4
				},
				"metallicFactor":0.9310590624809265,
				"roughnessFactor":0.1936633437871933
			}
		},
		{
			"doubleSided":true,
			"name":"Material.003",
			"normalTexture":{
				"index":5
			},
			"pbrMetallicRoughness":{
				"baseColorTexture":{
					"index":6
				},
				"metallicFactor":0.6933860778808594,
				"roughnessFactor":0.3033585846424103
			}
		},
		{
			"alphaMode":"BLEND",
			"doubleSided":true,
			"name":"Material2.001",
			"pbrMetallicRoughness":{
				"baseColorFactor":[
					1,
					1,
					1,
					0.7055743932723999
				],
				"baseColorTexture":{
					"index":7
				},
				"metallicFactor":0.45571306347846985,
				"metallicRoughnessTexture":{
					"index":8
				},
				"roughnessFactor":0.49837231636047363
			}
		},
		{
			"doubleSided":true,
			"name":"Material.004",
			"pbrMetallicRoughness":{
				"baseColorTexture":{
					"index":9
				},
				"metallicFactor":0.9310590624809265,
				"roughnessFactor":0.1936633437871933
			}
		}
	],
	"meshes":[
		{
			"name":"Object_0",
			"primitives":[
				{
					"attributes":{
						"POSITION":0,
						"NORMAL":1,
						"TEXCOORD_0":2,
						"TEXCOORD_1":3
					},
					"indices":4,
					"material":0
				}
			]
		},
		{
			"name":"Object_2",
			"primitives":[
				{
					"attributes":{
						"POSITION":5,
						"NORMAL":6,
						"TEXCOORD_0":7
					},
					"indices":8,
					"material":1
				}
			]
		},
		{
			"name":"Object_3",
			"primitives":[
				{
					"attributes":{
						"POSITION":9,
						"NORMAL":10,
						"TEXCOORD_0":11,
						"TEXCOORD_1":12
					},
					"indices":13,
					"material":0
				}
			]
		},
		{
			"name":"Object_4",
			"primitives":[
				{
					"attributes":{
						"POSITION":14,
						"NORMAL":15,
						"TEXCOORD_0":16,
						"TEXCOORD_1":17
					},
					"indices":18,
					"material":0
				}
			]
		},
		{
			"name":"Object_1",
			"primitives":[
				{
					"attributes":{
						"POSITION":19,
						"NORMAL":20,
						"TEXCOORD_0":21,
						"TEXCOORD_1":22
					},
					"indices":23,
					"material":2
				}
			]
		},
		{
			"name":"Object_0.001",
			"primitives":[
				{
					"attributes":{
						"POSITION":24,
						"NORMAL":25,
						"TEXCOORD_0":26,
						"TEXCOORD_1":27
					},
					"indices":4,
					"material":3
				}
			]
		},
		{
			"name":"Object_2.001",
			"primitives":[
				{
					"attributes":{
						"POSITION":28,
						"NORMAL":29,
						"TEXCOORD_0":30
					},
					"indices":8,
					"material":4
				}
			]
		},
		{
			"name":"Object_3.001",
			"primitives":[
				{
					"attributes":{
						"POSITION":31,
						"NORMAL":32,
						"TEXCOORD_0":33,
						"TEXCOORD_1":34
					},
					"indices":13,
					"material":3
				}
			]
		},
		{
			"name":"Object_4.001",
			"primitives":[
				{
					"attributes":{
						"POSITION":35,
						"NORMAL":36,
						"TEXCOORD_0":37,
						"TEXCOORD_1":38
					},
					"indices":18,
					"material":3
				}
			]
		},
		{
			"name":"Object_1.001",
			"primitives":[
				{
					"attributes":{
						"POSITION":39,
						"NORMAL":40,
						"TEXCOORD_0":41,
						"TEXCOORD_1":42
					},
					"indices":23,
					"material":5
				}
			]
		}
	],
	"textures":[
		{
			"sampler":0,
			"source":0
		},
		{
			"sampler":0,
			"source":1
		},
		{
			"sampler":0,
			"source":2
		},
		{
			"sampler":0,
			"source":3
		},
		{
			"sampler":0,
			"source":1
		},
		{
			"sampler":0,
			"source":0
		},
		{
			"sampler":0,
			"source":1
		},
		{
			"sampler":0,
			"source":2
		},
		{
			"sampler":0,
			"source":3
		},
		{
			"sampler":0,
			"source":1
		}
	],
	"images":[
		{
			"mimeType":"image/png",
			"name":"Material_normal",
			"uri":"Material_normal.png"
		},
		{
			"mimeType":"image/png",
			"name":"Material_baseColor",
			"uri":"Material_baseColor.png"
		},
		{
			"mimeType":"image/png",
			"name":"Material2_baseColor",
			"uri":"Material2_baseColor.png"
		},
		{
			"mimeType":"image/png",
			"name":"Material2_metallicRoughness",
			"uri":"Material2_metallicRoughness.png"
		}
	],
	"accessors":[
		{
			"bufferView":0,
			"componentType":5126,
			"count":1132,
			"max":[
				0.31848248839378357,
				0.8231068849563599,
				3.972938299179077
			],
			"min":[
				-0.31848248839378357,
				-0.7231597304344177,
				-4.023573875427246
			],
			"type":"VEC3"
		},
		{
			"bufferView":1,
			"componentType":5126,
			"count":1132,
			"type":"VEC3"
		},
		{
			"bufferView":2,
			"componentType":5126,
			"count":1132,
			"type":"VEC2"
		},
		{
			"bufferView":3,
			"componentType":5126,
			"count":1132,
			"type":"VEC2"
		},
		{
			"bufferView":4,
			"componentType":5123,
			"count":6054,
			"type":"SCALAR"
		},
		{
			"bufferView":5,
			"componentType":5126,
			"count":96,
			"max":[
				1.1681697368621826,
				1.8902065753936768,
				2.338108777999878
			],
			"min":[
				-1.1681697368621826,
				0.21607840061187744,
				-2.2926273345947266
			],
			"type":"VEC3"
		},
		{
			"bufferView":6,
			"componentType":5126,
			"count":96,
			"type":"VEC3"
		},
		{
			"bufferView":7,
			"componentType":5126,
			"count":96,
			"type":"VEC2"
		},
		{
			"bufferView":8,
			"componentType":5123,
			"count":264,
			"type":"SCALAR"
		},
		{
			"bufferView":9,
			"componentType":5126,
			"count":832,
			"max":[
				0.3167218565940857,
				0.9335913062095642,
				-3.804986000061035
			],
			"min":[
				-0.3167218565940857,
				0.6544854640960693,
				-3.971322536468506
			],
			"type":"VEC3"
		},
		{
			"bufferView":10,
			"componentType":5126,
			"count":832,
			"type":"VEC3"
		},
		{
			"bufferView":11,
			"componentType":5126,
			"count":832,
			"type":"VEC2"
		},
		{
			"bufferView":12,
			"componentType":5126,
			"count":832,
			"type":"VEC2"
		},
		{
			"bufferView":13,
			"componentType":5123,
			"count":3696,
			"type":"SCALAR"
		},
		{
			"bufferView":14,
			"componentType":5126,
			"count":9674,
			"max":[
				0.4437728524208069,
				0.4540112614631653,
				-2.211839199066162
			],
			"min":[
				-0.4437728524208069,
				-0.9547035694122314,
				-3.9255104064941406
			],
			"type":"VEC3"
		},
		{
			"bufferView":15,
			"componentType":5126,
			"count":9674,
			"type":"VEC3"
		},
		{
			"bufferView":16,
			"componentType":5126,
			"count":9674,
			"type":"VEC2"
		},
		{
			"bufferView":17,
			"componentType":5126,
			"count":9674,
			"type":"VEC2"
		},
		{
			"bufferView":18,
			"componentType":5123,
			"count":35436,
			"type":"SCALAR"
		},
		{
			"bufferView":19,
			"componentType":5126,
			"count":240,
			"max":[
				0.3818385899066925,
				0.7602136135101318,
				-3.541478395462036
			],
			"min":[
				-0.3818385899066925,
				0.3596838712692261,
				-3.908813714981079
			],
			"type":"VEC3"
		},
		{
			"bufferView":20,
			"componentType":5126,
			"count":240,
			"type":"VEC3"
		},
		{
			"bufferView":21,
			"componentType":5126,
			"count":240,
			"type":"VEC2"
		},
		{
			"bufferView":22,
			"componentType":5126,
			"count":240,
			"type":"VEC2"
		},
		{
			"bufferView":23,
			"componentType":5123,
			"count":1248,
			"type":"SCALAR"
		},
		{
			"bufferView":24,
			"componentType":5126,
			"count":1132,
			"max":[
				0.31848248839378357,
				0.8231068849563599,
				3.972938299179077
			],
			"min":[
				-0.31848248839378357,
				-0.7231597304344177,
				-4.023573875427246
			],
			"type":"VEC3"
		},
		{
			"bufferView":25,
			"componentType":5126,
			"count":1132,
			"type":"VEC3"
		},
		{
			"bufferView":26,
			"componentType":5126,
			"count":1132,
			"type":"VEC2"
		},
		{
			"bufferView":27,
			"componentType":5126,
			"count":1132,
			"type":"VEC2"
		},
		{
			"bufferView":28,
			"componentType":5126,
			"count":96,
			"max":[
				1.1681697368621826,
				1.8902065753936768,
				2.338108777999878
			],
			"min":[
				-1.1681697368621826,
				0.21607840061187744,
				-2.2926273345947266
			],
			"type":"VEC3"
		},
		{
			"bufferView":29,
			"componentType":5126,
			"count":96,
			"type":"VEC3"
		},
		{
			"bufferView":30,
			"componentType":5126,
			"count":96,
			"type":"VEC2"
		},
		{
			"bufferView":31,
			"componentType":5126,
			"count":832,
			"max":[
				0.3167218565940857,
				0.9335913062095642,
				-3.804986000061035
			],
			"min":[
				-0.3167218565940857,
				0.6544854640960693,
				-3.971322536468506
			],
			"type":"VEC3"
		},
		{
			"bufferView":32,
			"componentType":5126,
			"count":832,
			"type":"VEC3"
		},
		{
			"bufferView":33,
			"componentType":5126,
			"count":832,
			"type":"VEC2"
		},
		{
			"bufferView":34,
			"componentType":5126,
			"count":832,
			"type":"VEC2"
		},
		{
			"bufferView":35,
			"componentType":5126,
			"count":9674,
			"max":[
				0.4437728524208069,
				0.4540112614631653,
				-2.211839199066162
			],
			"min":[
				-0.4437728524208069,
				-0.9547035694122314,
				-3.9255104064941406
			],
			"type":"VEC3"
		},
		{
			"bufferView":36,
			"componentType":5126,
			"count":9674,
			"type":"VEC3"
		},
		{
			"bufferView":37,
			"componentType":5126,
			"count":9674,
			"type":"VEC2"
		},
		{
			"bufferView":38,
			"componentType":5126,
			"count":9674,
			"type":"VEC2"
		},
		{
			"bufferView":39,
			"componentType":5126,
			"count":240,
			"max":[
				0.3818385899066925,
				0.7602136135101318,
				-3.541478395462036
			],
			"min":[
				-0.3818385899066925,
				0.3596838712692261,
				-3.908813714981079
			],
			"type":"VEC3"
		},
		{
			"bufferView":40,
			"componentType":5126,
			"count":240,
			"type":"VEC3"
		},
		{
			"bufferView":41,
			"componentType":5126,
			"count":240,
			"type":"VEC2"
		},
		{
			"bufferView":42,
			"componentType":5126,
			"count":240,
			"type":"VEC2"
		}
	],
	"bufferViews":[
		{
			"buffer":0,
			"byteLength":13584,
			"byteOffset":0,
			"target":34962
		},
		{
			"buffer":0,
			"byteLength":13584,
			"byteOffset":13584,
			"target":34962
		},
		{
			"buffer":0,
			"byteLength":9056,
			"byteOffset":27168,
			"target":34962
		},
		{
			"buffer":0,
			"byteLength":9056,
			"byteOffset":36224,
			"target":34962
		},
		{
			"buffer":0,
			"byteLength":12108,
			"byteOffset":45280,
			"target":34963
		},
		{
			"buffer":0,
			"byteLength":1152,
			"byteOffset":57388,
			"target":34962
		},
		{
			"buffer":0,
			"byteLength":1152,
			"byteOffset":58540,
			"target":34962
		},
		{
			"buffer":0,
			"byteLength":768,
			"byteOffset":59692,
			"target":34962
		},
		{
			"buffer":0,
			"byteLength":528,
			"byteOffset":60460,
			"target":34963
		},
		{
			"buffer":0,
			"byteLength":9984,
			"byteOffset":60988,
			"target":34962
		},
		{
			"buffer":0,
			"byteLength":9984,
			"byteOffset":70972,
			"target":34962
		},
		{
			"buffer":0,
			"byteLength":6656,
			"byteOffset":80956,
			"target":34962
		},
		{
			"buffer":0,
			"byteLength":6656,
			"byteOffset":87612,
			"target":34962
		},
		{
			"buffer":0,
			"byteLength":7392,
			"byteOffset":94268,
			"target":34963
		},
		{
			"buffer":0,
			"byteLength":116088,
			"byteOffset":101660,
			"target":34962
		},
		{
			"buffer":0,
			"byteLength":116088,
			"byteOffset":217748,
			"target":34962
		},
		{
			"buffer":0,
			"byteLength":77392,
			"byteOffset":333836,
			"target":34962
		},
		{
			"buffer":0,
			"byteLength":77392,
			"byteOffset":411228,
			"target":34962
		},
		{
			"buffer":0,
			"byteLength":70872,
			"byteOffset":488620,
			"target":34963
		},
		{
			"buffer":0,
			"byteLength":2880,
			"byteOffset":559492,
			"target":34962
		},
		{
			"buffer":0,
			"byteLength":2880,
			"byteOffset":562372,
			"target":34962
		},
		{
			"buffer":0,
			"byteLength":1920,
			"byteOffset":565252,
			"target":34962
		},
		{
			"buffer":0,
			"byteLength":1920,
			"byteOffset":567172,
			"target":34962
		},
		{
			"buffer":0,
			"byteLength":2496,
			"byteOffset":569092,
			"target":34963
		},
		{
			"buffer":0,
			"byteLength":13584,
			"byteOffset":571588,
			"target":34962
		},
		{
			"buffer":0,
			"byteLength":13584,
			"byteOffset":585172,
			"target":34962
		},
		{
			"buffer":0,
			"byteLength":9056,
			"byteOffset":598756,
			"target":34962
		},
		{
			"buffer":0,
			"byteLength":9056,
			"byteOffset":607812,
			"target":34962
		},
		{
			"buffer":0,
			"byteLength":1152,
			"byteOffset":616868,
			"target":34962
		},
		{
			"buffer":0,
			"byteLength":1152,
			"byteOffset":618020,
			"target":34962
		},
		{
			"buffer":0,
			"byteLength":768,
			"byteOffset":619172,
			"target":34962
		},
		{
			"buffer":0,
			"byteLength":9984,
			"byteOffset":619940,
			"target":34962
		},
		{
			"buffer":0,
			"byteLength":9984,
			"byteOffset":629924,
			"target":34962
		},
		{
			"buffer":0,
			"byteLength":6656,
			"byteOffset":639908,
			"target":34962
		},
		{
			"buffer":0,
			"byteLength":6656,
			"byteOffset":646564,
			"target":34962
		},
		{
			"buffer":0,
			"byteLength":116088,
			"byteOffset":653220,
			"target":34962
		},
		{
			"buffer":0,
			"byteLength":116088,
			"byteOffset":769308,
			"target":34962
		},
		{
			"buffer":0,
			"byteLength":77392,
			"byteOffset":885396,
			"target":34962
		},
		{
			"buffer":0,
			"byteLength":77392,
			"byteOffset":962788,
			"target":34962
		},
		{
			"buffer":0,
			"byteLength":2880,
			"byteOffset":1040180,
			"target":34962
		},
		{
			"buffer":0,
			"byteLength":2880,
			"byteOffset":1043060,
			"target":34962
		},
		{
			"buffer":0,
			"byteLength":1920,
			"byteOffset":1045940,
			"target":34962
		},
		{
			"buffer":0,
			"byteLength":1920,
			"byteOffset":1047860,
			"target":34962
		}
	],
	"samplers":[
		{
			"magFilter":9729,
			"minFilter":9987
		}
	],
	"buffers":[
		{
			"byteLength":1049780,
			"uri":"dragonfly.bin"
		}
	]
}
