{
	"asset":{
		"generator":"Khronos glTF Blender I/O v4.1.62",
		"version":"2.0"
	},
	"scene":0,
	"scenes":[
		{
			"name":"Scene",
			"nodes":[
				7
			]
		}
	],
	"nodes":[
		{
			"mesh":0,
			"name":"Leaf_Mesh_Leaf_0"
		},
		{
			"children":[
				0
			],
			"name":"Leaf_Mesh"
		},
		{
			"mesh":1,
			"name":"Spicebush_Swallowtail_Larva_Spicebush_Larva_Mat_0"
		},
		{
			"children":[
				2
			],
			"name":"Spicebush_Swallowtail_Larva"
		},
		{
			"children":[
				1,
				3
			],
			"name":"Spicebush_Larva_GRP"
		},
		{
			"children":[
				4
			],
			"name":"RootNode"
		},
		{
			"children":[
				5
			],
			"name":"2004a040e07d454a8af5187d1e46e398.fbx",
			"rotation":[
				0.70710688829422,
				0,
				0,
				0.7071066498756409
			]
		},
		{
			"children":[
				6
			],
			"name":"Sketchfab_model",
			"rotation":[
				-0.70710688829422,
				0,
				0,
				0.7071066498756409
			],
			"scale":[
				1.8733474016189575,
				1.8733476400375366,
				1.8733476400375366
			],
			"translation":[
				-0.026837855577468872,
				1.1375375986099243,
				0.43542131781578064
			]
		}
	],
	"materials":[
		{
			"doubleSided":true,
			"name":"Leaf",
			"pbrMetallicRoughness":{}
		},
		{
			"doubleSided":true,
			"name":"Spicebush_Larva_Mat",
			"occlusionTexture":{
				"index":0
			},
			"pbrMetallicRoughness":{}
		}
	],
	"meshes":[
		{
			"name":"Leaf_Mesh_Leaf_0",
			"primitives":[
				{
					"attributes":{
						"POSITION":0,
						"NORMAL":1,
						"TEXCOORD_0":2,
						"TEXCOORD_1":3
					},
					"indices":4,
					"material":0
				}
			]
		},
		{
			"name":"Spicebush_Swallowtail_Larva_Spicebush_Larva_Mat_0",
			"primitives":[
				{
					"attributes":{
						"POSITION":5,
						"NORMAL":6,
						"TEXCOORD_0":7
					},
					"indices":8,
					"material":1
				}
			]
		}
	],
	"textures":[
		{
			"sampler":0,
			"source":0
		}
	],
	"images":[
		{
			"mimeType":"image/png",
			"name":"Image_3",
			"uri":"Image_3.png"
		}
	],
	"accessors":[
		{
			"bufferView":0,
			"componentType":5126,
			"count":1292,
			"max":[
				3.3575637340545654,
				1.2668031454086304,
				7.292542934417725
			],
			"min":[
				-2.4214181900024414,
				-1.239608645439148,
				-5.576302528381348
			],
			"type":"VEC3"
		},
		{
			"bufferView":1,
			"componentType":5126,
			"count":1292,
			"type":"VEC3"
		},
		{
			"bufferView":2,
			"componentType":5126,
			"count":1292,
			"type":"VEC2"
		},
		{
			"bufferView":3,
			"componentType":5126,
			"count":1292,
			"type":"VEC2"
		},
		{
			"bufferView":4,
			"componentType":5123,
			"count":6072,
			"type":"SCALAR"
		},
		{
			"bufferView":5,
			"componentType":5126,
			"count":895,
			"max":[
				1.0893810987472534,
				2.1143956184387207,
				4.1451520919799805
			],
			"min":[
				-1.2300716638565063,
				-0.5599655508995056,
				-5.202491283416748
			],
			"type":"VEC3"
		},
		{
			"bufferView":6,
			"componentType":5126,
			"count":895,
			"type":"VEC3"
		},
		{
			"bufferView":7,
			"componentType":5126,
			"count":895,
			"type":"VEC2"
		},
		{
			"bufferView":8,
			"componentType":5123,
			"count":5064,
			"type":"SCALAR"
		}
	],
	"bufferViews":[
		{
			"buffer":0,
			"byteLength":15504,
			"byteOffset":0,
			"target":34962
		},
		{
			"buffer":0,
			"byteLength":15504,
			"byteOffset":15504,
			"target":34962
		},
		{
			"buffer":0,
			"byteLength":10336,
			"byteOffset":31008,
			"target":34962
		},
		{
			"buffer":0,
			"byteLength":10336,
			"byteOffset":41344,
			"target":34962
		},
		{
			"buffer":0,
			"byteLength":12144,
			"byteOffset":51680,
			"target":34963
		},
		{
			"buffer":0,
			"byteLength":10740,
			"byteOffset":63824,
			"target":34962
		},
		{
			"buffer":0,
			"byteLength":10740,
			"byteOffset":74564,
			"target":34962
		},
		{
			"buffer":0,
			"byteLength":7160,
			"byteOffset":85304,
			"target":34962
		},
		{
			"buffer":0,
			"byteLength":10128,
			"byteOffset":92464,
			"target":34963
		}
	],
	"samplers":[
		{
			"magFilter":9729,
			"minFilter":9987
		}
	],
	"buffers":[
		{
			"byteLength":102592,
			"uri":"catterpillar.bin"
		}
	]
}
