{
	"asset":{
		"generator":"Khronos glTF Blender I/O v4.1.62",
		"version":"2.0"
	},
	"scene":0,
	"scenes":[
		{
			"name":"Scene",
			"nodes":[
				0,
				1,
				2
			]
		}
	],
	"nodes":[
		{
			"name":"Ulysses Butterfly",
			"scale":[
				0.6938948631286621,
				0.6938949227333069,
				0.6938949227333069
			]
		},
		{
			"mesh":0,
			"name":"Object_7"
		},
		{
			"name":"UlyssesButterfly_62"
		}
	],
	"materials":[
		{
			"alphaCutoff":0.5,
			"alphaMode":"MASK",
			"doubleSided":true,
			"name":"UlyssesButterfly_mat",
			"pbrMetallicRoughness":{
				"baseColorTexture":{
					"index":0
				},
				"metallicFactor":0,
				"roughnessFactor":0.5
			}
		}
	],
	"meshes":[
		{
			"name":"Object_0",
			"primitives":[
				{
					"attributes":{
						"POSITION":0,
						"NORMAL":1,
						"TEXCOORD_0":2
					},
					"indices":3,
					"material":0
				}
			]
		}
	],
	"textures":[
		{
			"sampler":0,
			"source":0
		}
	],
	"images":[
		{
			"mimeType":"image/png",
			"name":"UlyssesButterfly_mat_baseColor",
			"uri":"UlyssesButterfly_mat_baseColor.png"
		}
	],
	"accessors":[
		{
			"bufferView":0,
			"componentType":5126,
			"count":6305,
			"max":[
				1.660095453262329,
				0.15867510437965393,
				1.4698255062103271
			],
			"min":[
				-1.6600955724716187,
				-0.4433094561100006,
				-1.3723325729370117
			],
			"type":"VEC3"
		},
		{
			"bufferView":1,
			"componentType":5126,
			"count":6305,
			"type":"VEC3"
		},
		{
			"bufferView":2,
			"componentType":5126,
			"count":6305,
			"type":"VEC2"
		},
		{
			"bufferView":3,
			"componentType":5123,
			"count":33348,
			"type":"SCALAR"
		}
	],
	"bufferViews":[
		{
			"buffer":0,
			"byteLength":75660,
			"byteOffset":0,
			"target":34962
		},
		{
			"buffer":0,
			"byteLength":75660,
			"byteOffset":75660,
			"target":34962
		},
		{
			"buffer":0,
			"byteLength":50440,
			"byteOffset":151320,
			"target":34962
		},
		{
			"buffer":0,
			"byteLength":66696,
			"byteOffset":201760,
			"target":34963
		}
	],
	"samplers":[
		{
			"magFilter":9729,
			"minFilter":9987
		}
	],
	"buffers":[
		{
			"byteLength":268456,
			"uri":"butterfly.bin"
		}
	]
}
